<?xml version="1.0" encoding="utf-8"?>
<!-- Generator: Adobe Illustrator 18.1.1, SVG Export Plug-In . SVG Version: 6.00 Build 0)  -->
<svg version="1.1" id="Layer_1" xmlns="http://www.w3.org/2000/svg" xmlns:xlink="http://www.w3.org/1999/xlink" x="0px" y="0px"
	 viewBox="0 0 327.3 57.3" enable-background="new 0 0 327.3 57.3" xml:space="preserve">
<path fill="#303030" d="M107.7,11.6c2,0,3.6,1.4,3.6,3.3s-1.6,3.3-3.6,3.3s-3.5-1.6-3.5-3.3C104.3,13.2,105.7,11.6,107.7,11.6z"/>
<path fill="#303030" d="M275.1,13c1.2,0,2.1,0.8,2.1,1.9s-0.9,1.9-2.1,1.9s-2-0.9-2-1.9C273.1,13.9,273.9,13,275.1,13z"/>
<path fill="#303030" d="M37.6-0.1C27.3-0.1,18.8,8,18.3,18.2C8.1,18.7,0,27.1,0,37.4C0,48,8.7,56.7,19.3,56.7l29.8,0l0.1,0
	c4.3,0,7.8-3.5,7.8-7.7v-1.2V19.2C57,8.5,48.3-0.1,37.6-0.1z M16.9,48.2c-4-1-7.2-4.2-8.2-8.1l0,0c-0.1-0.5-0.1-0.7-0.2-1.2h0.2h8.2
	V48.2z M27.1,48.5h-7.4c-0.2,0-0.4,0-0.5,0V30.3h7.9V48.5z M37.8,48.5h-7.9V15.3h7.9V48.5z M48.5,46.9c0,0.9-0.7,1.7-1.6,1.7h-6.4
	V21.7h8V46.9z"/>
<g>
	<path fill="#303030" d="M76.5,15.1h6v19l10.8-11.6h7.3L90.2,33.1L101,48.6h-7l-7.7-11.3l-3.7,3.9v7.5h-6V15.1z"/>
	<path fill="#303030" d="M104.7,22.5h6v26.1h-6V22.5z"/>
	<path fill="#303030" d="M115.3,45.2l2.7-4.1c2.9,2.1,5.9,3.2,8.6,3.2c2.6,0,4.1-1.1,4.1-2.8v-0.1c0-2-2.8-2.7-5.8-3.7
		c-3.9-1.1-8.2-2.7-8.2-7.7V30c0-4.9,4.1-8,9.3-8c3.3,0,6.8,1.1,9.6,3l-2.4,4.3c-2.5-1.5-5.2-2.5-7.4-2.5c-2.3,0-3.7,1.1-3.7,2.6
		v0.1c0,1.9,2.8,2.7,5.9,3.7c3.8,1.2,8.1,2.9,8.1,7.6v0.1c0,5.5-4.3,8.2-9.7,8.2C122.7,49.1,118.6,47.8,115.3,45.2z"/>
	<path fill="#303030" d="M139.1,45.2l2.7-4.1c2.9,2.1,5.9,3.2,8.6,3.2c2.6,0,4.1-1.1,4.1-2.8v-0.1c0-2-2.8-2.7-5.8-3.7
		c-3.9-1.1-8.2-2.7-8.2-7.7V30c0-4.9,4.1-8,9.3-8c3.3,0,6.8,1.1,9.6,3l-2.4,4.3c-2.5-1.5-5.2-2.5-7.4-2.5c-2.3,0-3.7,1.1-3.7,2.6
		v0.1c0,1.9,2.8,2.7,5.9,3.7c3.8,1.2,8.1,2.9,8.1,7.6v0.1c0,5.5-4.3,8.2-9.7,8.2C146.5,49.1,142.4,47.8,139.1,45.2z"/>
	<path fill="#303030" d="M165.6,23.4h2.4v4.5c1.6-2.6,3.9-5.1,8.4-5.1c4.4,0,7.1,2.5,8.5,5.4c1.6-2.8,4.4-5.4,9.1-5.4
		c6,0,9.7,4.2,9.7,10.5v15.3h-2.4v-15c0-5.4-2.8-8.6-7.5-8.6c-4.3,0-8,3.3-8,8.9v14.7h-2.4V33.5c0-5.2-2.9-8.5-7.4-8.5
		c-4.5,0-8.1,4-8.1,9.1v14.5h-2.4V23.4z"/>
	<path fill="#303030" d="M208.2,36L208.2,36c0-7.4,5.1-13.3,12-13.3c7.1,0,11.6,5.7,11.6,13.2c0,0.4,0,0.6,0,1h-20.9
		c0.4,6.3,4.9,9.9,9.9,9.9c3.9,0,6.6-1.7,8.7-4l1.7,1.5c-2.6,2.8-5.6,4.8-10.4,4.8C214,49.2,208.2,43.9,208.2,36z M229.1,34.8
		c-0.3-5.1-3.3-9.8-9.1-9.8c-5,0-8.9,4.2-9.3,9.8H229.1z"/>
	<path fill="#303030" d="M238.6,42.1V25.6h-3.7v-2.2h3.7v-8.1h2.4v8.1h8.9v2.2H241v16.3c0,3.6,2.1,4.9,5,4.9c1.2,0,2.3-0.2,3.7-0.9
		v2.3c-1.3,0.6-2.5,0.9-4.1,0.9C241.7,49.1,238.6,46.9,238.6,42.1z"/>
	<path fill="#303030" d="M255.1,23.4h2.4v7.2c2-4.5,6.2-7.8,11.2-7.6v2.7h-0.2c-5.8,0-10.9,4.4-10.9,12.6v10.3h-2.4V23.4z"/>
	<path fill="#303030" d="M273.8,23.4h2.4v25.2h-2.4V23.4z"/>
	<path fill="#303030" d="M281.2,36.1L281.2,36.1c0-7.2,5.6-13.3,12.9-13.3c4.8,0,7.7,2.2,10.1,4.7l-1.7,1.8
		c-2.2-2.2-4.7-4.2-8.4-4.2c-5.7,0-10.2,4.8-10.2,10.8V36c0,6.1,4.6,10.9,10.4,10.9c3.6,0,6.3-1.8,8.5-4.2l1.7,1.5
		c-2.6,2.9-5.6,5-10.3,5C286.8,49.2,281.2,43.2,281.2,36.1z"/>
	<path fill="#303030" d="M308.5,45.5l1.4-1.9c2.8,2.1,5.8,3.3,9.1,3.3c3.4,0,6.1-1.9,6.1-4.8v-0.1c0-3-3.2-4.1-6.7-5
		c-4.1-1.2-8.7-2.4-8.7-6.9v-0.1c0-4.1,3.4-7,8.3-7c3,0,6.4,1.1,9,2.8l-1.3,2c-2.3-1.5-5.1-2.5-7.8-2.5c-3.5,0-5.7,1.9-5.7,4.4v0.1
		c0,2.8,3.4,3.9,7,4.9c4.1,1.1,8.3,2.6,8.3,7.1v0.1c0,4.5-3.9,7.4-8.7,7.4C315.1,49.1,311.1,47.6,308.5,45.5z"/>
</g>
</svg>
